#!OML:ASF F:\VICON\USERDATA\INSTALL\rory3\rory3.ASF
:FULLY-SPECIFIED
:DEGREES
329
root 9.80941 17.8811 4.55153 -40.4984 82.2002 -37.9094
lowerback 13.3886 0.641766 -1.92782
upperback 2.26874 0.719345 0.977055
thorax -5.14971 0.430978 1.98686
lowerneck -5.5236 -10.1932 -13.2916
upperneck 38.8196 -14.6831 10.3885
head 16.9781 -6.36086 4.71462
rclavicle 2.08724e-015 9.93923e-015
rhumerus -36.903 -14.8354 -76.9099
rradius 37.5554
rwrist 5.45116
rhand -20.5714 9.46232
rfingers 7.12502
rthumb 5.78819 -20.4386
lclavicle 2.08724e-015 9.93923e-015
lhumerus -35.575 8.40046 74.7921
lradius 35.5182
lwrist -4.01116
lhand -20.256 25.0725
lfingers 7.12502
lthumb 6.0927 54.9649
rfemur -5.3043 1.87818 17.1464
rtibia 23.0266
rfoot -10.3644 -0.802179
rtoes -13.9564
lfemur -10.1173 -11.2748 -1.82619
ltibia 37.624
lfoot -0.713179 15.5299
ltoes 6.38011
330
root 9.78485 17.8819 4.63344 -38.8758 81.8575 -36.332
lowerback 13.3629 0.680842 -1.76871
upperback 2.29566 0.795956 1.00091
thorax -5.10932 0.465705 1.90854
lowerneck -5.5249 -10.184 -13.2431
upperneck 38.8443 -14.6465 10.2944
head 16.9671 -6.35001 4.67016
rclavicle 1.41137e-014 -2.78299e-015
rhumerus -36.7534 -14.1139 -76.8836
rradius 37.9384
rwrist 5.47434
rhand -20.7437 9.3684
rfingers 7.12502
rthumb 5.62184 -20.537
lclavicle 1.41137e-014 -2.78299e-015
lhumerus -35.6954 8.05131 75.1567
lradius 35.7415
lwrist -4.28681
lhand -20.6224 25.1485
lfingers 7.12502
lthumb 5.73896 55.0507
rfemur -5.73492 2.01551 17.4845
rtibia 23.4897
rfoot -10.5177 -0.552345
rtoes -13.0501
lfemur -10.628 -10.9809 -2.15328
ltibia 38.384
lfoot -2.0393 12.4792
ltoes 4.05056
331
root 9.75959 17.8775 4.71109 -36.7858 81.5833 -34.2813
lowerback 13.3321 0.747359 -1.69702
upperback 2.33639 0.892548 0.953395
thorax -5.05221 0.511078 1.80133
lowerneck -5.46463 -10.234 -13.1453
upperneck 38.7793 -14.7628 10.3297
head 16.9302 -6.38497 4.64598
rclavicle -9.83984e-015 1.23246e-014
rhumerus -36.5922 -13.6975 -76.8146
rradius 38.3633
rwrist 5.23125
rhand -20.9612 9.25446
rfingers 7.12502
rthumb 5.41183 -20.6564
lclavicle -9.83984e-015 1.23246e-014
lhumerus -35.7582 7.71513 75.3505
lradius 35.9378
lwrist -5.30106
lhand -21.1425 25.3605
lfingers 7.12502
lthumb 5.23673 55.2758
rfemur -6.19132 2.23451 17.6623
rtibia 23.9981
rfoot -10.6271 -0.314275
rtoes -11.4969
lfemur -11.1302 -10.6119 -2.6654
ltibia 39.1257
lfoot -3.65842 9.32634
ltoes 1.18806
332
root 9.73346 17.8717 4.78556 -35.0808 81.2808 -32.4556
lowerback 13.4792 0.647778 -1.70966
upperback 2.38709 0.763785 1.03276
thorax -5.07508 0.449265 1.9138
lowerneck -5.44907 -10.1065 -13.5212
upperneck 38.8681 -14.5336 10.4081
head 16.9882 -6.33825 4.79629
rclavicle 9.0447e-015 2.50469e-014
rhumerus -36.2776 -12.7284 -76.7391
rradius 38.7364
rwrist 4.62897
rhand -20.6757 9.39073
rfingers 7.12502
rthumb 5.68748 -20.5129
lclavicle 9.0447e-015 2.50469e-014
lhumerus -36.0743 8.11403 75.3997
lradius 36.1221
lwrist -6.28389
lhand -22.0722 25.5768
lfingers 7.12502
lthumb 4.3391 55.5124
rfemur -6.48737 2.54588 17.854
rtibia 24.5325
rfoot -10.7531 -0.138411
rtoes -9.66431
lfemur -11.4278 -10.3222 -3.23966
ltibia 39.8256
lfoot -5.38873 6.34385
ltoes -2.42227
333
root 9.70738 17.8613 4.85444 -33.1625 80.9551 -30.3696
lowerback 13.6369 0.838211 -1.62267
upperback 2.44212 1.02046 0.896397
thorax -5.11171 0.57395 1.67427
lowerneck -5.20786 -10.2349 -13.1977
upperneck 38.8289 -14.8182 10.4408
head 16.9262 -6.41204 4.71046
rclavicle 1.19271e-014 6.36111e-015
rhumerus -36.3245 -12.6366 -76.5776
rradius 39.2549
rwrist 3.97399
rhand -20.2607 9.71582
rfingers 7.12502
rthumb 6.08812 -20.1767
lclavicle 1.19271e-014 6.36111e-015
lhumerus -36.0428 6.97528 76.0348
lradius 36.282
lwrist -4.97792
lhand -24.7968 26.3714
lfingers 7.12502
lthumb 1.70778 56.3443
rfemur -6.77095 2.8883 18.0089
rtibia 25.1537
rfoot -10.9416 0.0253738
rtoes -8.44005
lfemur -11.6242 -10.0824 -3.95651
ltibia 40.4381
lfoot -7.2049 3.32035
ltoes -6.08324
334
root 9.68258 17.8554 4.91796 -30.7519 80.597 -27.9344
lowerback 13.6003 0.963722 -1.62747
upperback 2.50698 1.18392 0.831143
thorax -5.02874 0.653335 1.57995
lowerneck -5.12499 -10.3122 -13.0167
upperneck 38.8029 -14.9477 10.3559
head 16.8826 -6.45333 4.61672
rclavicle -7.25564e-015 -1.59028e-015
rhumerus -36.2445 -12.2775 -76.3941
rradius 39.8704
rwrist 3.5155
rhand -19.8915 9.75014
rfingers 7.12502
rthumb 6.44457 -20.1318
lclavicle -7.25564e-015 -1.59028e-015
lhumerus -35.9813 7.16651 76.0354
lradius 36.207
lwrist -6.81919
lhand -22.4226 26.0132
lfingers 7.12502
lthumb 4.00065 55.9554
rfemur -7.23962 3.1631 18.0972
rtibia 25.8214
rfoot -11.1166 0.340536
rtoes -8.17438
lfemur -11.8825 -9.97471 -4.77175
ltibia 40.9515
lfoot -8.99468 0.235212
ltoes -6.5457
335
root 9.65963 17.8515 4.981 -28.6988 80.2631 -25.82
lowerback 13.5797 0.990469 -1.63471
upperback 2.61495 1.21963 0.79562
thorax -4.90442 0.670225 1.54139
lowerneck -5.15483 -10.3088 -13.1116
upperneck 38.79 -14.9708 10.468
head 16.9138 -6.46622 4.67807
rclavicle 3.27995e-015 -1.07344e-014
rhumerus -36.0618 -12.0838 -76.2079
rradius 40.4307
rwrist 3.49084
rhand -19.8967 9.62063
rfingers 7.12502
rthumb 6.43958 -20.2615
lclavicle 3.27995e-015 -1.07344e-014
lhumerus -36.0052 6.50592 76.6893
lradius 36.3513
lwrist -5.3364
lhand -23.1736 26.1548
lfingers 7.12502
lthumb 3.27547 56.1094
rfemur -7.6411 3.21716 18.1689
rtibia 26.4585
rfoot -11.3613 0.711329
rtoes -8.58839
lfemur -12.0772 -9.94611 -5.61514
ltibia 41.381
lfoot -10.3804 -2.51747
ltoes -6.39539
336
root 9.64199 17.8438 5.04575 -27.6414 79.9176 -24.498
lowerback 13.6706 0.924634 -1.62164
upperback 2.78928 1.14387 0.87168
thorax -4.76877 0.633429 1.6273
lowerneck -5.18924 -10.239 -13.316
upperneck 38.7954 -14.8403 10.4894
head 16.9278 -6.44232 4.74561
rclavicle -1.6201e-014 -3.97569e-015
rhumerus -35.7592 -11.7082 -76.0048
rradius 40.8639
rwrist 3.39004
rhand -20.2386 9.60865
rfingers 7.12502
rthumb 6.10948 -20.2833
lclavicle -1.6201e-014 -3.97569e-015
lhumerus -36.075 7.24345 76.5398
lradius 36.2599
lwrist -7.54604
lhand -21.2824 25.8505
lfingers 7.12502
lthumb 5.10169 55.7691
rfemur -7.74042 3.2625 18.3604
rtibia 26.9995
rfoot -11.564 0.986559
rtoes -8.3552
lfemur -12.0053 -9.75375 -6.45212
ltibia 41.7359
lfoot -11.6917 -4.91119
ltoes -9.81757
337
root 9.62848 17.8374 5.10981 -27.0449 79.5479 -23.5482
lowerback 13.863 0.882058 -1.4984
upperback 2.92999 1.11088 0.909548
thorax -4.72305 0.616923 1.60177
lowerneck -5.11277 -10.1978 -13.41
upperneck 38.8204 -14.7569 10.4475
head 16.9127 -6.43097 4.76202
rclavicle -8.79622e-015 6.36111e-015
rhumerus -35.6034 -11.5446 -75.7215
rradius 41.3182
rwrist 3.14498
rhand -20.3076 9.44202
rfingers 7.12502
rthumb 6.04289 -20.4518
lclavicle -8.79622e-015 6.36111e-015
lhumerus -36.2223 7.48235 76.6155
lradius 36.1819
lwrist -8.18313
lhand -21.5729 25.7754
lfingers 7.12502
lthumb 4.82115 55.7006
rfemur -7.66608 3.521 18.6331
rtibia 27.4653
rfoot -11.7327 1.09779
rtoes -7.65491
lfemur -11.7859 -9.43559 -7.27134
ltibia 42.0518
lfoot -12.8988 -7.31347
ltoes -12.003
338
root 9.61219 17.8353 5.168 -25.3091 79.1805 -21.6067
lowerback 13.9334 0.911688 -1.47884
upperback 3.01757 1.14984 0.81727
thorax -4.66851 0.635623 1.48652
lowerneck -5.01333 -10.2058 -13.4012
upperneck 38.8397 -14.7664 10.3965
head 16.8931 -6.44484 4.73946
rclavicle -2.04251e-014 -9.14409e-015
rhumerus -35.5253 -11.6556 -75.4651
rradius 41.783
rwrist 2.91334
rhand -20.1806 9.21519
rfingers 7.12502
rthumb 6.16543 -20.6751
lclavicle -2.04251e-014 -9.14409e-015
lhumerus -36.2797 7.28977 76.844
lradius 36.0199
lwrist -8.30775
lhand -20.8984 25.1771
lfingers 7.12502
lthumb 5.47241 55.0865
rfemur -7.75889 3.89794 18.6694
rtibia 27.8828
rfoot -11.8354 1.2516
rtoes -6.50118
lfemur -11.7295 -9.08304 -8.29362
ltibia 42.3626
lfoot -13.8667 -9.22559
ltoes -11.6804
339
root 9.58955 17.8315 5.21941 -23.3771 78.8243 -19.5821
lowerback 13.859 0.854415 -1.55836
upperback 3.14328 1.06521 0.782467
thorax -4.49287 0.593806 1.51166
lowerneck -5.10483 -10.1409 -13.4024
upperneck 38.8409 -14.6216 10.2566
head 16.8698 -6.40282 4.69636
rclavicle 3.4837e-014 1.03368e-014
rhumerus -35.2436 -11.6392 -75.2699
rradius 42.2333
rwrist 2.63974
rhand -20.1841 9.28876
rfingers 7.12502
rthumb 6.1621 -20.6016
lclavicle 3.4837e-014 1.03368e-014
lhumerus -36.2761 7.31946 77.1601
lradius 35.838
lwrist -8.83064
lhand -18.7767 24.3301
lfingers 7.12502
lthumb 7.52072 54.1764
rfemur -8.01965 4.08855 18.6222
rtibia 28.2733
rfoot -11.9507 1.54296
rtoes -6.16566
lfemur -11.8259 -8.7886 -9.38393
ltibia 42.7054
lfoot -14.87 -10.6185
ltoes -11.6953
340
root 9.5692 17.8279 5.26092 -21.6662 78.4155 -17.9848
lowerback 13.6076 0.818709 -1.49238
upperback 3.18093 1.02932 0.780396
thorax -4.31366 0.573279 1.48153
lowerneck -5.22022 -10.092 -13.3499
upperneck 38.9066 -14.4782 10.0361
head 16.8731 -6.35869 4.60931
rclavicle -4.82053e-015 -3.18055e-015
rhumerus -35.0481 -11.8333 -74.9335
rradius 42.7034
rwrist 2.41202
rhand -20.2396 8.79909
rfingers 7.12502
rthumb 6.10853 -21.0928
lclavicle -4.82053e-015 -3.18055e-015
lhumerus -36.2752 7.30444 77.5553
lradius 35.654
lwrist -9.13674
lhand -19.8798 25.2125
lfingers 7.12502
lthumb 6.45585 55.0941
rfemur -8.5258 4.06245 18.5746
rtibia 28.6902
rfoot -12.2104 2.10105
rtoes -5.76894
lfemur -12.1138 -8.37582 -10.3922
ltibia 43.0442
lfoot -15.7022 -12.1111
ltoes -11.6267
341
root 9.55213 17.8227 5.29543 -19.4623 77.9224 -15.9905
lowerback 13.2851 0.849879 -1.33866
upperback 3.13354 1.0846 0.662821
thorax -4.18468 0.596098 1.26568
lowerneck -5.17093 -10.0403 -13.3017
upperneck 38.9247 -14.3831 9.94303
head 16.8351 -6.32561 4.57865
rclavicle -2.52457e-014 1.19271e-015
rhumerus -34.9916 -12.1273 -74.6032
rradius 43.134
rwrist 2.05926
rhand -19.7549 8.09434
rfingers 7.12502
rthumb 6.5764 -21.7835
lclavicle -2.52457e-014 1.19271e-015
lhumerus -36.2942 7.11972 77.8106
lradius 35.5144
lwrist -8.65296
lhand -20.2754 25.783
lfingers 7.12502
lthumb 6.07393 55.6759
rfemur -9.17362 4.02453 18.3904
rtibia 29.1637
rfoot -12.4627 2.79472
rtoes -4.93911
lfemur -12.4785 -7.71647 -11.5175
ltibia 43.3338
lfoot -16.3518 -13.5653
ltoes -11.5199
342
root 9.53439 17.818 5.33698 -17.2625 77.4437 -13.8463
lowerback 13.1357 0.84404 -1.40608
upperback 3.09653 1.06356 0.610325
thorax -4.14133 0.584682 1.25398
lowerneck -5.13176 -9.96887 -13.494
upperneck 38.9665 -14.2161 9.85139
head 16.829 -6.29846 4.60319
rclavicle -1.11319e-014 1.19271e-014
rhumerus -34.9508 -11.9524 -74.3338
rradius 43.6686
rwrist 1.31723
rhand -19.6631 8.16997
rfingers 7.12502
rthumb 6.66504 -21.7051
lclavicle -1.11319e-014 1.19271e-014
lhumerus -36.4201 7.19864 77.968
lradius 35.4397
lwrist -8.0223
lhand -19.5532 25.4519
lfingers 7.12502
lthumb 6.77115 55.3237
rfemur -9.6639 4.16578 18.1941
rtibia 29.6561
rfoot -12.6506 3.20228
rtoes -4.90857
lfemur -12.6619 -6.99983 -12.7743
ltibia 43.5277
lfoot -17.0578 -14.671
ltoes -11.4852
343
root 9.51792 17.8149 5.37991 -15.3964 76.9904 -12.0052
lowerback 12.9983 0.834131 -1.47467
upperback 3.06119 1.03531 0.51484
thorax -4.10171 0.56973 1.19899
lowerneck -5.13708 -9.94354 -13.4809
upperneck 39.0431 -14.1598 9.75991
head 16.8498 -6.28506 4.57214
rclavicle -1.50082e-014 5.1684e-015
rhumerus -34.9874 -11.919 -74.1662
rradius 44.2798
rwrist 0.468485
rhand -20.5496 8.53277
rfingers 7.12502
rthumb 5.8092 -21.3676
lclavicle -1.50082e-014 5.1684e-015
lhumerus -36.5576 7.21482 78.0577
lradius 35.3171
lwrist -7.81735
lhand -18.9599 25.3425
lfingers 7.12502
lthumb 7.3439 55.1951
rfemur -10.1025 4.34933 18.0293
rtibia 30.1536
rfoot -12.8829 3.50438
rtoes -4.63341
lfemur -12.7618 -6.3748 -14.0308
ltibia 43.5947
lfoot -17.7838 -15.6007
ltoes -12.6199
